<svg id="visual" viewBox="0 0 900 600" width="900" height="600" xmlns="http://www.w3.org/2000/svg" xmlns:xlink="http://www.w3.org/1999/xlink" version="1.1"><rect x="0" y="0" width="900" height="600" fill="#012d4f"></rect><path d="M0 407L21.5 413.3C43 419.7 86 432.3 128.8 428.2C171.7 424 214.3 403 257.2 394.8C300 386.7 343 391.3 385.8 387.3C428.7 383.3 471.3 370.7 514.2 364.2C557 357.7 600 357.3 642.8 361C685.7 364.7 728.3 372.3 771.2 372.5C814 372.7 857 365.3 878.5 361.7L900 358L900 601L878.5 601C857 601 814 601 771.2 601C728.3 601 685.7 601 642.8 601C600 601 557 601 514.2 601C471.3 601 428.7 601 385.8 601C343 601 300 601 257.2 601C214.3 601 171.7 601 128.8 601C86 601 43 601 21.5 601L0 601Z" fill="#0a2ba6"></path><path d="M0 450L21.5 453.3C43 456.7 86 463.3 128.8 468.3C171.7 473.3 214.3 476.7 257.2 473.8C300 471 343 462 385.8 461.7C428.7 461.3 471.3 469.7 514.2 464.7C557 459.7 600 441.3 642.8 431.5C685.7 421.7 728.3 420.3 771.2 420C814 419.7 857 420.3 878.5 420.7L900 421L900 601L878.5 601C857 601 814 601 771.2 601C728.3 601 685.7 601 642.8 601C600 601 557 601 514.2 601C471.3 601 428.7 601 385.8 601C343 601 300 601 257.2 601C214.3 601 171.7 601 128.8 601C86 601 43 601 21.5 601L0 601Z" fill="#002383"></path><path d="M0 450L21.5 449.5C43 449 86 448 128.8 450.5C171.7 453 214.3 459 257.2 458.8C300 458.7 343 452.3 385.8 448.2C428.7 444 471.3 442 514.2 446.5C557 451 600 462 642.8 466.2C685.7 470.3 728.3 467.7 771.2 467.3C814 467 857 469 878.5 470L900 471L900 601L878.5 601C857 601 814 601 771.2 601C728.3 601 685.7 601 642.8 601C600 601 557 601 514.2 601C471.3 601 428.7 601 385.8 601C343 601 300 601 257.2 601C214.3 601 171.7 601 128.8 601C86 601 43 601 21.5 601L0 601Z" fill="#001b62"></path><path d="M0 526L21.5 519.7C43 513.3 86 500.7 128.8 496C171.7 491.3 214.3 494.7 257.2 502.3C300 510 343 522 385.8 523C428.7 524 471.3 514 514.2 513C557 512 600 520 642.8 521.2C685.7 522.3 728.3 516.7 771.2 510.5C814 504.3 857 497.7 878.5 494.3L900 491L900 601L878.5 601C857 601 814 601 771.2 601C728.3 601 685.7 601 642.8 601C600 601 557 601 514.2 601C471.3 601 428.7 601 385.8 601C343 601 300 601 257.2 601C214.3 601 171.7 601 128.8 601C86 601 43 601 21.5 601L0 601Z" fill="#031242"></path><path d="M0 553L21.5 556C43 559 86 565 128.8 563.8C171.7 562.7 214.3 554.3 257.2 550.3C300 546.3 343 546.7 385.8 544.2C428.7 541.7 471.3 536.3 514.2 533.3C557 530.3 600 529.7 642.8 536.2C685.7 542.7 728.3 556.3 771.2 557.2C814 558 857 546 878.5 540L900 534L900 601L878.5 601C857 601 814 601 771.2 601C728.3 601 685.7 601 642.8 601C600 601 557 601 514.2 601C471.3 601 428.7 601 385.8 601C343 601 300 601 257.2 601C214.3 601 171.7 601 128.8 601C86 601 43 601 21.5 601L0 601Z" fill="#050124"></path></svg>