<svg xmlns="http://www.w3.org/2000/svg" version="1.1" xmlns:xlink="http://www.w3.org/1999/xlink" xmlns:svgjs="http://svgjs.dev/svgjs" width="3840" height="2160" preserveAspectRatio="none" viewBox="0 0 3840 2160"><g mask="url(&quot;#SvgjsMask1099&quot;)" fill="none"><rect width="3840" height="2160" x="0" y="0" fill="rgba(104, 148, 197, 1)"></rect><path d="M0,1340.797C345.725,1359.256,670.902,1668.946,995.939,1549.711C1323.171,1429.671,1559.58,1085.29,1628.133,743.543C1693.621,417.076,1404.411,134.268,1345.613,-193.47C1289.805,-504.547,1490.44,-873.654,1293.636,-1120.942C1097.569,-1367.303,705.415,-1284.891,404.155,-1376.426C99.157,-1469.096,-187.775,-1769.161,-488.096,-1662.302C-790.91,-1554.556,-818.652,-1133.212,-1008.426,-873.806C-1177.682,-642.445,-1449.71,-493.108,-1541.992,-221.705C-1643.579,77.065,-1654.211,409.557,-1545.526,705.818C-1432.632,1013.552,-1233.056,1322.322,-929.86,1446.89C-635.336,1567.895,-317.96,1323.821,0,1340.797" fill="#3c6a9d"></path><path d="M3840 3631.398C4123.724 3629.7780000000002 4411.474 3573.699 4644.5380000000005 3411.886 4873.439 3252.9629999999997 5004.36 2998.084 5118.396 2743.824 5231.772 2491.036 5296.7919999999995 2227.087 5300.171 1950.059 5304.03 1633.71 5304.642 1303.893 5139.25 1034.194 4960.669 742.9870000000001 4694.361 441.96399999999994 4354.459 407.91499999999996 4014.274 373.83799999999997 3782.595 752.6400000000001 3460.042 865.983 3162.46 970.5509999999999 2766.0969999999998 812.4570000000001 2549.821 1042.053 2334.487 1270.6480000000001 2479.295 1647.0990000000002 2431.815 1957.534 2383.7650000000003 2271.7 2148.951 2583.172 2269.1130000000003 2877.4 2389.359 3171.835 2742.809 3283.486 3029.534 3421.109 3286.3540000000003 3544.3779999999997 3555.134 3633.025 3840 3631.398" fill="#a5bfdc"></path></g><defs><mask id="SvgjsMask1099"><rect width="3840" height="2160" fill="#ffffff"></rect></mask></defs></svg>